# xmcd
#
# Track frame offsets: 
#        150
#        19028
#        28008
#        39070
#        45275
#        66660
#        78153
#        94070
#        101565
#        115140
#        125440
#        142648
#        150398
#        177095
#        181050
#        191725
#
# Disc length: 2692 seconds
#
# Revision: 11
# Processed by: cddbd v1.5.2PL0 Copyright (c) Steve Scherf et al.
# Submitted via: ExactAudioCopy v0.95b4
#
DISCID=ba0a8210
DTITLE=Henry Purcell - Purcell - Music For Queen Mary
DYEAR=1977
DGENRE=Classical
TTITLE0=Come, ye sons of art: I. Overture
TTITLE1=Come, ye sons of art: II. Come, ye sons of art, come away
TTITLE2=Come, ye sons of art: III. Sound the trumpet
TTITLE3=Come, ye sons of art: IV. Come, ye sons of art, come away
TTITLE4=Come, ye sons of art: V. Strike the Viol
TTITLE5=Come, ye sons of art: VI. The day that such a blessing
TTITLE6=Come, ye sons of art: VII. Bid the virtues
TTITLE7=Come, ye sons of art: VIII. These are the sacred charms
TTITLE8=Come, ye sons of art: IX. See, nature, rejoicing
TTITLE9=Music for the funeral of Queen Mary: I. March
TTITLE10=Music for the funeral of Queen Mary: II. Man that is born
TTITLE11=Music for the funeral of Queen Mary: III. Canzona
TTITLE12=Music for the funeral of Queen Mary: IV. In the midst of life
TTITLE13=Music for the funeral of Queen Mary: V. Canzona
TTITLE14=Music for the funeral of Queen Mary: VI. Thou knowest, Lord, 
TTITLE14=the secrets of our hearts
TTITLE15=Music for the funeral of Queen Mary: VII. March
EXTD=Henry Purcell (1658-1695]\n\n''Come, ye sons of Art" an Ode for t
EXTD=he birthday of Queen Mary in 1694.\nMusic for the funeral of Quee
EXTD=n Mary in 1695.\n\nSingers:\n* Felicity Lott ''soprano''\n* Charl
EXTD=es Brett ''counter-tenor''\n* John Williams ''counter-tenor''\n* 
EXTD=Thomas Allen ''bass''\n\nMonteverdi Choir and Orchestra conducted
EXTD=by John Eliot Gardiner.\\nContinuo:\n* Marilyn Sansom ''cello''\n
EXTD=* Barry Guy ''double bass''\n* Trevor Pinnock ''harpsichord''\n\n
EXTD=Equale Brass Ensemble:\n* Michael Laird ''trumpets''\n* Peter Goo
EXTD=dwin, Peter Harvey ''sackbuts''\n* David Corkhill ''tympani''\n\n
EXTD=Recorded at Rosslyn Hill Chapel, London in February 1976 by Peter
EXTD=Wellmöes.\nProducer: Michel Garcin\nEditor: Françoise Garcin
EXTT0=
EXTT1=
EXTT2=
EXTT3=
EXTT4=
EXTT5=
EXTT6=
EXTT7=
EXTT8=
EXTT9=
EXTT10=
EXTT11=
EXTT12=
EXTT13=
EXTT14=
EXTT15=
PLAYORDER=
